PathFileType	4	(X/Y/Z)	C:\Users\Basilio\Documents\Thesis Gigler\squatting_fais\c3dfiles\058\SLS_front_pre4\markers_experimental.trc
DataRate	CameraRate	NumFrames	NumMarkers	Units	OrigDataRate	OrigDataStartFrame	OrigNumFrames
200.000000	200.000000	4	61	mm	200.000000	0	1282
Frame#	Time	FHD			LBHD			RBHD			C7			T10			CLAV			LSHO			LUUPA			LMUPA			LDUPA			LLEP			LRAD			LUL			LRFIN			RSHO			RUPA1			RMUPA			RDUPA			RLEP			RMEP			RRAD			RUL			RUFIN			LASI			RASI			USACR			LSACR			RSACR			LTHI1			LTHI2			LTHI3			LTHI4			LLFC			LMFC			LTIB1			LTIB2			LTIB3			LTIB4			LLMAL			LMMAL			LHEE			LMT1			LMT2			LMT5			RTHI			RTHI2			RTHI3			RTHI4			RLFC			RMFC			RTIB1			RTIB2			RTIB3			RTIB4			RLMAL			RMMAL			RHEE			RMT1			RMT2			RMT5			LMEP			
		X1	Y1	Z1	X2	Y2	Z2	X3	Y3	Z3	X4	Y4	Z4	X5	Y5	Z5	X6	Y6	Z6	X7	Y7	Z7	X8	Y8	Z8	X9	Y9	Z9	X10	Y10	Z10	X11	Y11	Z11	X12	Y12	Z12	X13	Y13	Z13	X14	Y14	Z14	X15	Y15	Z15	X16	Y16	Z16	X17	Y17	Z17	X18	Y18	Z18	X19	Y19	Z19	X20	Y20	Z20	X21	Y21	Z21	X22	Y22	Z22	X23	Y23	Z23	X24	Y24	Z24	X25	Y25	Z25	X26	Y26	Z26	X27	Y27	Z27	X28	Y28	Z28	X29	Y29	Z29	X30	Y30	Z30	X31	Y31	Z31	X32	Y32	Z32	X33	Y33	Z33	X34	Y34	Z34	X35	Y35	Z35	X36	Y36	Z36	X37	Y37	Z37	X38	Y38	Z38	X39	Y39	Z39	X40	Y40	Z40	X41	Y41	Z41	X42	Y42	Z42	X43	Y43	Z43	X44	Y44	Z44	X45	Y45	Z45	X46	Y46	Z46	X47	Y47	Z47	X48	Y48	Z48	X49	Y49	Z49	X50	Y50	Z50	X51	Y51	Z51	X52	Y52	Z52	X53	Y53	Z53	X54	Y54	Z54	X55	Y55	Z55	X56	Y56	Z56	X57	Y57	Z57	X58	Y58	Z58	X59	Y59	Z59	X60	Y60	Z60	X61	Y61	Z61	

1	0	-319.7590637207032	1810.246704101563	-786.361511230469	-475.5602111816407	1760.5947265625	-862.8010253906252	-306.1088562011719	1817.714965820313	-929.254333496094	-484.2678222656251	1598.052124023438	-883.0481567382815	-474.6229248046876	1288.736572265625	-873.8012695312502	-326.7843322753907	1553.711547851563	-863.6881103515627	-335.4352416992188	1597.242309570313	-1029.5595703125	-243.0834960937501	1420.099365234375	-1137.104125976563	-199.1070251464844	1441.378540039063	-1125.870483398438	-184.0048370361328	1383.166259765625	-1135.051025390625	-122.1052398681641	1348.039306640625	-1128.44921875	115.6744537353516	1223.732788085938	-1046.104125976563	118.8456115722657	1224.874755859375	-1128.036010742188	213.7354431152344	1190.19384765625	-1054.0341796875	-362.5129394531251	1589.89404296875	-696.9464111328126	-272.0606689453126	1403.591552734375	-593.7296142578126	-229.7984161376954	1425.34716796875	-607.4547119140626	-210.0753021240235	1372.007446289063	-590.1861572265626	-161.2678985595703	1329.752685546875	-594.0148315429689	-178.2498779296875	1280.940673828125	-655.4199829101564	82.25855255126955	1201.141235351563	-644.7309570312501	73.52579498291017	1205.2265625	-564.4519653320314	166.8943328857422	1170.436279296875	-621.8399047851564	-280.7185058593751	1097.200317382813	-1000.127685546875	-276.2640991210938	1096.645874023438	-755.7346191406251	-476.8642578125001	1167.6708984375	-863.6909790039065	-481.672088623047	1135.493530273438	-891.4614868164065	-476.8797607421876	1135.1259765625	-833.9443359375002	-341.7173461914063	816.764099121094	-1082.541870117188	-314.5501098632813	735.9165649414064	-1080.135864257813	-268.3042602539063	736.7825317382814	-1059.950439453125	-344.6368408203126	684.8789672851564	-1075.039916992188	-351.3382873535157	582.5844726562501	-1068.902954101563	-318.9722900390626	570.5589599609376	-946.9691162109377	-301.8659667968751	443.6404724121095	-1043.28857421875	-360.9154663085938	413.0105895996095	-1095.767578125	-320.1400756835938	402.2853088378907	-1077.379760742188	-321.8013610839844	318.5867614746094	-1058.3935546875	-393.9678039550782	125.6386032104492	-1077.0263671875	-362.5710449218751	137.874267578125	-989.0715942382815	-454.3323669433595	109.817855834961	-1021.500854492188	-235.3536834716797	64.75504302978517	-1017.434997558594	-236.0991668701172	63.25297164916994	-1063.968383789063	-290.6351928710938	47.0301742553711	-1113.571166992188	-382.9720458984376	887.132995605469	-680.8247070312501	-345.6870117187501	832.980163574219	-675.0574951171876	-312.7971801757813	833.9905395507815	-677.7361450195314	-372.8206787109376	753.3333129882814	-688.6524047851564	-366.6336669921876	572.6726684570314	-698.3784179687501	-321.3227844238282	551.7703247070314	-825.4648437500002	-311.0751647949219	362.0162963867188	-762.7360839843751	-353.3853454589844	289.1448364257813	-691.6058959960939	-317.2561340332032	280.5806884765626	-721.9946289062501	-323.8935546875001	233.3070831298829	-752.9462280273439	-382.1598815917969	128.7794342041016	-707.4868164062501	-350.6054382324219	143.120834350586	-795.3213500976565	-447.0509033203126	107.3580856323242	-765.8148803710939	-236.935287475586	59.57120895385744	-772.6704711914065	-232.1046752929688	63.0534019470215	-720.1380615234376	-283.6993103027344	33.54573822021485	-668.8849487304689	nan	nan	nan	
2	0.005	-319.8746948242188	1810.265991210938	-786.3378906250002	-475.6050109863282	1760.549194335938	-862.727722167969	-306.1898498535157	1817.737548828125	-929.187683105469	-484.363739013672	1598.048706054688	-882.9552001953127	-474.6497192382814	1288.73583984375	-873.7701416015627	-326.7639770507813	1553.743774414063	-863.644714355469	-335.4606018066407	1597.284057617188	-1029.540649414063	-243.147445678711	1420.111694335938	-1137.068725585938	-199.1837158203126	1441.359252929688	-1125.908081054688	-184.083236694336	1383.169189453125	-1135.053833007813	-122.1492919921875	1348.106567382813	-1128.490234375	115.5695877075196	1223.664794921875	-1046.197998046875	118.7874984741211	1224.91943359375	-1128.177734375	213.5934295654297	1190.104736328125	-1054.1669921875	-362.5045471191407	1589.899780273438	-696.9271850585939	-272.0851440429688	1403.526977539063	-593.7136840820314	-229.8192596435547	1425.274291992188	-607.4000854492189	-210.1332702636719	1371.943725585938	-590.1479492187501	-161.3863983154297	1329.625244140625	-593.9309692382814	-178.394775390625	1280.840087890625	-655.3354492187501	82.09017944335939	1200.966186523438	-644.7136840820314	73.40756225585939	1205.132568359375	-564.3900756835939	166.8572692871094	1170.226928710938	-621.8596191406251	-280.8072509765626	1097.209350585938	-1000.057678222656	-276.3179321289063	1096.63671875	-755.7159423828126	-476.8636169433595	1167.64794921875	-863.660339355469	-481.7290649414064	1135.490356445313	-891.3650512695315	-476.9688720703126	1135.120361328125	-833.8764648437502	-341.8488769531251	816.776550292969	-1082.557006835938	-314.5909423828126	735.8961791992189	-1080.167724609375	-268.3494262695313	736.8474121093751	-1059.982421875	-344.6457519531251	684.9241333007814	-1075.040161132813	-351.3172302246094	582.5723266601564	-1068.90478515625	-318.9589233398438	570.5294799804689	-946.9694824218752	-301.8770751953126	443.6731567382814	-1043.320434570313	-360.8838806152344	412.9271545410157	-1095.80517578125	-320.1330871582032	402.3061828613282	-1077.443237304688	-321.7922058105469	318.5862426757813	-1058.452880859375	-393.9763488769532	125.6145553588867	-1077.095336914063	-362.5638122558594	137.9022979736328	-989.0777587890627	-454.3323669433595	109.8179473876953	-1021.500854492188	-235.3525543212891	64.78417968750001	-1017.436645507813	-236.0814514160157	63.27735900878908	-1063.972290039063	-290.6282043457032	47.0296974182129	-1113.599853515625	-383.0150451660157	887.099548339844	-680.8569335937501	-345.7105407714844	832.9530029296877	-675.0566406250001	-312.7965087890626	833.9630126953127	-677.7318725585939	-372.8486938476563	753.2844238281251	-688.6494750976564	-366.6509704589844	572.6405029296876	-698.3640136718751	-321.2848205566407	551.7936401367189	-825.4876098632815	-311.0020141601563	361.9814147949219	-762.7387084960939	-353.3908081054688	289.1314086914063	-691.5736083984376	-317.2536621093751	280.5979309082032	-721.9697265625001	-323.8771972656251	233.3131256103516	-752.9216918945314	-382.1469421386719	128.8154296875	-707.4818725585939	-350.6054382324219	143.120834350586	-795.3213500976565	-447.0728454589845	107.3482131958008	-765.7938842773439	-236.9418945312501	59.56763076782228	-772.6926269531252	-232.0636291503907	63.08946228027345	-720.1546020507814	-283.6655273437501	33.56547927856446	-668.8591918945314	nan	nan	nan	
3	0.01	-319.9338073730469	1810.242797851563	-786.2705688476565	-475.6845092773439	1760.483154296875	-862.6622314453127	-306.2825317382813	1817.701904296875	-929.1655273437502	-484.3414611816407	1598.0498046875	-882.9112548828127	-474.6753234863282	1288.72314453125	-873.733581542969	-326.8227233886719	1553.764038085938	-863.5767211914065	-335.4871520996094	1597.261596679688	-1029.475708007813	-243.2017364501954	1420.11279296875	-1137.013427734375	-199.2779846191407	1441.373901367188	-1125.910766601563	-184.1519012451172	1383.268798828125	-1135.066040039063	-122.1869125366211	1348.145874023438	-1128.531982421875	115.4520339965821	1223.596313476563	-1046.285034179688	118.7303619384766	1224.950439453125	-1128.2802734375	213.3927612304688	1189.983032226563	-1054.249145507813	-362.5193786621094	1589.886596679688	-696.8603515625001	-272.1387023925782	1403.45654296875	-593.6766967773439	-229.8377380371094	1425.222045898438	-607.3833618164064	-210.1460418701172	1371.910400390625	-590.1281127929689	-161.4498443603516	1329.51904296875	-593.9359130859376	-178.5166473388672	1280.726806640625	-655.2908935546876	81.93020629882814	1200.776489257813	-644.6597290039064	73.32891845703126	1205.025268554688	-564.3633422851564	166.8107604980469	1170.096313476563	-621.8273925781251	-280.8805541992188	1097.19384765625	-1000.015319824219	-276.3286437988282	1096.636108398438	-755.7113037109376	-476.8953247070314	1167.651123046875	-863.598815917969	-481.7669677734376	1135.475341796875	-891.3052368164065	-476.9959106445314	1135.120727539063	-833.8455200195315	-341.8955688476563	816.806579589844	-1082.55419921875	-314.6400756835938	735.9451293945314	-1080.198120117188	-268.4309692382813	736.8536987304689	-1059.939331054688	-344.7635803222657	684.9003295898439	-1075.0771484375	-351.4113159179688	582.5824584960939	-1068.919067382813	-319.0227355957032	570.5172119140626	-946.9957275390627	-301.8932800292969	443.6651000976564	-1043.345458984375	-360.9786682128907	412.9757080078126	-1095.840698242188	-320.1720581054688	402.3132629394532	-1077.470947265625	-321.8468017578126	318.6090698242188	-1058.536865234375	-394.0103759765626	125.6312789916992	-1077.093994140625	-362.5640563964844	137.9056701660157	-989.1456298828127	-454.3287048339845	109.7943191528321	-1021.511779785156	-235.3623809814454	64.76708221435548	-1017.433349609375	-236.068099975586	63.24064254760744	-1064.014282226563	-290.6351318359376	47.03272247314454	-1113.601196289063	-383.0100708007813	887.090515136719	-680.8563232421876	-345.7477722167969	832.9470825195315	-675.0755004882814	-312.8429870605469	833.9697265625002	-677.7064208984376	-372.8486938476563	753.2844238281251	-688.6494750976564	-366.6217346191407	572.5656127929689	-698.3720092773439	-321.2466125488282	551.8031005859376	-825.4295043945315	-311.0396118164063	361.9904174804688	-762.7055664062501	-353.3944396972657	289.1104431152344	-691.5895385742189	-317.2547607421876	280.5651855468751	-721.9644165039064	-323.9118347167969	233.2828216552735	-752.9135742187501	-382.0966186523438	128.796615600586	-707.4986572265626	-350.6237182617188	143.118637084961	-795.347106933594	-447.0602416992189	107.3269882202149	-765.8161621093751	-236.9419250488282	59.56761550903322	-772.6926879882815	-232.0635681152344	63.03603744506837	-720.1519775390626	-283.6959533691407	33.56892776489259	-668.8866577148439	nan	nan	nan	
4	0.015	-319.9977722167969	1810.23876953125	-786.2338867187502	-475.699188232422	1760.46044921875	-862.6101684570315	-306.4255065917969	1817.746704101563	-929.1484375000002	-484.372283935547	1598.048095703125	-882.850036621094	-474.7676696777345	1288.73828125	-873.6759033203127	-326.7423706054688	1553.732788085938	-863.5345458984377	-335.4996337890626	1597.370483398438	-1029.438354492188	-245.1325073242188	1421.037231445313	-1136.0849609375	-199.7072448730469	1441.921020507813	-1125.6240234375	-184.1616973876953	1383.289184570313	-1135.067993164063	-122.2206344604492	1348.189208984375	-1128.541870117188	115.3759384155274	1223.492919921875	-1046.464233398438	118.6178588867188	1224.98828125	-1128.378051757813	213.0863952636719	1189.904663085938	-1054.286499023438	-362.4830627441407	1589.8876953125	-696.8179321289064	-272.1340026855469	1403.384033203125	-593.6745605468751	-229.9487609863282	1425.09814453125	-607.3406372070314	-210.2638702392579	1371.85302734375	-590.0801391601564	-161.4669647216797	1329.435668945313	-593.8665771484376	-178.6193237304688	1280.654541015625	-655.2124023437501	81.88944244384767	1200.666015625	-644.6016845703126	73.28704071044923	1204.905883789063	-564.3179321289064	166.6873931884766	1169.949829101563	-621.7587280273439	-280.8922729492188	1097.211181640625	-999.9910278320315	-276.3684387207032	1096.6455078125	-755.7343750000001	-476.9937133789064	1167.637451171875	-863.5374755859377	-481.847869873047	1135.495727539063	-891.2695312500002	-477.0552062988282	1135.125244140625	-833.7535400390627	-341.9939575195313	816.8004150390627	-1082.532836914063	-314.7435302734376	735.9226684570314	-1080.177734375	-268.4518432617188	736.8827514648439	-1060.05615234375	-344.8078308105469	684.8983154296876	-1075.049560546875	-351.4200134277344	582.5808715820314	-1068.94287109375	-319.0260925292969	570.5439453125001	-947.0201416015627	-301.9018554687501	443.704315185547	-1043.376586914063	-361.1697387695313	413.0298156738282	-1095.80517578125	-320.2037048339844	402.3306884765626	-1077.521240234375	-321.8812866210938	318.6129150390626	-1058.567260742188	-393.9883117675782	125.6276779174805	-1077.146362304688	-362.5554199218751	137.9205322265625	-989.1819458007815	-454.3584289550782	109.8233489990235	-1021.524719238281	-235.3441314697266	64.8269729614258	-1017.447204589844	-235.967025756836	63.30774307250978	-1064.001098632813	-290.6445007324219	47.03478240966798	-1113.596801757813	-383.0152282714844	887.1013183593752	-680.8442382812501	-345.7801818847657	832.8877563476565	-675.0570678710939	-312.8507690429688	833.883972167969	-677.7419433593751	-372.8730163574219	753.2324218750001	-688.6403198242189	-366.6366271972657	572.5833129882814	-698.3544311523439	-321.2458801269532	551.7572631835939	-825.4294433593752	-310.9792785644532	362.0210266113282	-762.6868896484376	-353.3436584472657	289.1165771484376	-691.5532226562501	-317.2606811523438	280.5137634277344	-721.9866943359376	-323.9115905761719	233.2803802490235	-752.9064331054689	-382.1196594238282	128.8280334472657	-707.4943847656251	-350.5772399902344	143.10400390625	-795.3193969726565	-447.0389709472657	107.3456802368164	-765.7891235351564	-236.9221801757813	59.57193756103517	-772.718444824219	-232.063461303711	63.03620529174806	-720.1519775390626	-283.6656494140626	33.55527496337891	-668.8673706054689	nan	nan	nan	
